# xmcd CD database file
#
# Track frame offsets:
#	150
#	14462
#	25392
#	35825
#	45887
#	55645
#	65047
#	75502
#	87095
#	97055
#	107257
#	117050
#
# Disc length: 1756 seconds
#
# Revision: 4
# Processed by: cddbd v1.5.1PL2 Copyright (c) Steve Scherf et al.
# Submitted via: NeoAudio 9.9.9
#
DISCID=8b06da0c
DTITLE=Various Artist - Happy Holidays, Volume 37
DYEAR=2002
DGENRE=Christmas
TTITLE0=Nat King Cole - Joy to the World
TTITLE1=Lena Horne - Let It Snow!  Let It Snow!  Let It Snow!
TTITLE2=John Berry - O Holy Night
TTITLE3=Bing Crosby and Ella Fitzgerald - Rudolph, The Red-Nosed Riendeer
TTITLE4=Deana Carter - Carol Of The Bells
TTITLE5=Tennessee Ernie Ford - The Little Drummer Boy
TTITLE6=Lou Rawls - Sleigh Ride
TTITLE7=Peggy Lee - Happy Holidays
TTITLE8=Brenda Lee - Rockin' Around The Christmas Tree
TTITLE9=Trace Adkins - The Christmas Song
TTITLE10=Dean Martin - Baby, It's Cold Outside
TTITLE11=Steven Curtis Chapman - Christmas Is All In The Heart
EXTD=YEAR: 2002
EXTT0=
EXTT1=
EXTT2=
EXTT3=
EXTT4=
EXTT5=
EXTT6=
EXTT7=
EXTT8=
EXTT9=
EXTT10=
EXTT11=
PLAYORDER=
